name Walk6.mot
datacolumns 19
datarows 20
range 2.03800000 2.05700000
endheader

                time	   L_ground_force_vx	   L_ground_force_vy	   L_ground_force_vz	   L_ground_force_px	   L_ground_force_py	   L_ground_force_pz	   R_ground_force_vx	   R_ground_force_vy	   R_ground_force_vz	   R_ground_force_px	   R_ground_force_py	   R_ground_force_pz	   L_ground_torque_x	   L_ground_torque_y	   L_ground_torque_z	   R_ground_torque_x	   R_ground_torque_y	   R_ground_torque_z	
          2.03800000	        -33.15241968	        548.91420978	         15.51842773	          0.51090539	          0.00000000	          0.24237669	          0.00000000	          0.00000000	          0.00000000	          0.00000000	          0.00000000	          0.00000000	          0.00000000	         -1.14839140	          0.00000000	          0.00000000	          0.00000000	          0.00000000	
          2.03900000	        -32.80339041	        547.70365629	         15.56860743	          0.51125564	          0.00000000	          0.24239290	          0.00000000	          0.00000000	          0.00000000	          0.00000000	          0.00000000	          0.00000000	          0.00000000	         -1.15146984	          0.00000000	          0.00000000	          0.00000000	          0.00000000	
          2.04000000	        -32.48092273	        546.40132045	         15.61693142	          0.51165396	          0.00000000	          0.24247695	          0.00000000	          0.00000000	          0.00000000	          0.00000000	          0.00000000	          0.00000000	          0.00000000	         -1.14500161	          0.00000000	          0.00000000	          0.00000000	          0.00000000	
          2.04100000	        -32.18571238	        544.98975063	         15.67202648	          0.51208780	          0.00000000	          0.24256923	          0.00000000	          0.00000000	          0.00000000	          0.00000000	          0.00000000	          0.00000000	          0.00000000	         -1.13787759	          0.00000000	          0.00000000	          0.00000000	          0.00000000	
          2.04200000	        -31.90432129	        543.48240572	         15.74866896	          0.51255634	          0.00000000	          0.24261738	          0.00000000	          0.00000000	          0.00000000	          0.00000000	          0.00000000	          0.00000000	          0.00000000	         -1.13515073	          0.00000000	          0.00000000	          0.00000000	          0.00000000	
          2.04300000	        -31.62220695	        541.90910535	         15.85219461	          0.51305114	          0.00000000	          0.24260830	          0.00000000	          0.00000000	          0.00000000	          0.00000000	          0.00000000	          0.00000000	          0.00000000	         -1.13999426	          0.00000000	          0.00000000	          0.00000000	          0.00000000	
          2.04400000	        -31.33669707	        540.34220148	         15.97228080	          0.51355353	          0.00000000	          0.24256042	          0.00000000	          0.00000000	          0.00000000	          0.00000000	          0.00000000	          0.00000000	          0.00000000	         -1.15711728	          0.00000000	          0.00000000	          0.00000000	          0.00000000	
          2.04500000	        -31.05350531	        538.88967230	         16.09119330	          0.51404446	          0.00000000	          0.24249023	          0.00000000	          0.00000000	          0.00000000	          0.00000000	          0.00000000	          0.00000000	          0.00000000	         -1.18901353	          0.00000000	          0.00000000	          0.00000000	          0.00000000	
          2.04600000	        -30.77487942	        537.61074236	         16.20073511	          0.51451508	          0.00000000	          0.24240221	          0.00000000	          0.00000000	          0.00000000	          0.00000000	          0.00000000	          0.00000000	          0.00000000	         -1.23155894	          0.00000000	          0.00000000	          0.00000000	          0.00000000	
          2.04700000	        -30.49907243	        536.47402050	         16.30942040	          0.51496321	          0.00000000	          0.24231049	          0.00000000	          0.00000000	          0.00000000	          0.00000000	          0.00000000	          0.00000000	          0.00000000	         -1.27678338	          0.00000000	          0.00000000	          0.00000000	          0.00000000	
          2.04800000	        -30.22987312	        535.42373557	         16.43154542	          0.51537302	          0.00000000	          0.24224413	          0.00000000	          0.00000000	          0.00000000	          0.00000000	          0.00000000	          0.00000000	          0.00000000	         -1.31848615	          0.00000000	          0.00000000	          0.00000000	          0.00000000	
          2.04900000	        -29.97555307	        534.43175462	         16.57544353	          0.51573147	          0.00000000	          0.24222041	          0.00000000	          0.00000000	          0.00000000	          0.00000000	          0.00000000	          0.00000000	          0.00000000	         -1.35253662	          0.00000000	          0.00000000	          0.00000000	          0.00000000	
          2.05000000	        -29.73894033	        533.47265553	         16.73949375	          0.51607102	          0.00000000	          0.24221982	          0.00000000	          0.00000000	          0.00000000	          0.00000000	          0.00000000	          0.00000000	          0.00000000	         -1.37362044	          0.00000000	          0.00000000	          0.00000000	          0.00000000	
          2.05100000	        -29.51906047	        532.51006418	         16.91705054	          0.51645421	          0.00000000	          0.24219447	          0.00000000	          0.00000000	          0.00000000	          0.00000000	          0.00000000	          0.00000000	          0.00000000	         -1.37675138	          0.00000000	          0.00000000	          0.00000000	          0.00000000	
          2.05200000	        -29.31821689	        531.52347786	         17.10923165	          0.51692065	          0.00000000	          0.24210705	          0.00000000	          0.00000000	          0.00000000	          0.00000000	          0.00000000	          0.00000000	          0.00000000	         -1.36337344	          0.00000000	          0.00000000	          0.00000000	          0.00000000	
          2.05300000	        -29.13806109	        530.51861990	         17.32641240	          0.51746378	          0.00000000	          0.24195595	          0.00000000	          0.00000000	          0.00000000	          0.00000000	          0.00000000	          0.00000000	          0.00000000	         -1.34291287	          0.00000000	          0.00000000	          0.00000000	          0.00000000	
          2.05400000	        -28.97282020	        529.51618109	         17.57855452	          0.51803400	          0.00000000	          0.24176837	          0.00000000	          0.00000000	          0.00000000	          0.00000000	          0.00000000	          0.00000000	          0.00000000	         -1.32572572	          0.00000000	          0.00000000	          0.00000000	          0.00000000	
          2.05500000	        -28.81004268	        528.55117617	         17.87441691	          0.51856484	          0.00000000	          0.24158605	          0.00000000	          0.00000000	          0.00000000	          0.00000000	          0.00000000	          0.00000000	          0.00000000	         -1.31499325	          0.00000000	          0.00000000	          0.00000000	          0.00000000	
          2.05600000	        -28.63570110	        527.67235573	         18.21973415	          0.51902356	          0.00000000	          0.24144824	          0.00000000	          0.00000000	          0.00000000	          0.00000000	          0.00000000	          0.00000000	          0.00000000	         -1.30708936	          0.00000000	          0.00000000	          0.00000000	          0.00000000	
          2.05700000	        -28.43945657	        526.91027791	         18.60749395	          0.51944022	          0.00000000	          0.24136991	          0.00000000	          0.00000000	          0.00000000	          0.00000000	          0.00000000	          0.00000000	          0.00000000	         -1.29753783	          0.00000000	          0.00000000	          0.00000000	          0.00000000	
